<?xml version="1.0" standalone="no"?>
<!DOCTYPE svg PUBLIC "-//W3C//DTD SVG 20010904//EN"
 "http://www.w3.org/TR/2001/REC-SVG-20010904/DTD/svg10.dtd">
<svg role="img" aria-label="OLD PERMIC LETTER TSIU U+1036D" shape-rendering="geometricPrecision" version="1.0" xmlns="http://www.w3.org/2000/svg"
 width="99.000000pt" height="56.000000pt" viewBox="0 0 99.000000 56.000000"
 preserveAspectRatio="xMidYMid meet">
<metadata>
Created by potrace 1.16, written by Peter Selinger 2001-2019
</metadata>
<g transform="translate(0.000000,56.000000) scale(0.100000,-0.100000)"
fill="#000000" stroke="none">
<path d="M555 468 c-2 -7 -13 -41 -24 -76 -12 -34 -21 -71 -21 -82 0 -11 -4
-20 -9 -20 -5 0 -11 -19 -15 -42 -4 -23 -11 -47 -16 -53 -4 -5 -11 -27 -15
-47 -6 -29 -4 -38 6 -38 13 0 38 66 55 145 4 17 10 35 14 40 4 6 11 26 15 45
4 19 11 40 15 45 4 6 12 29 17 53 9 34 8 42 -3 42 -8 0 -16 -6 -19 -12z"/>
</g>
  <title>OLD PERMIC LETTER TSIU — U+1036D</title>
  <metadata>Style-specific true vector path derived from the complete original glyph cell.</metadata>
</svg>
