<?xml version='1.0' encoding='utf-8'?>
<svg xmlns="http://www.w3.org/2000/svg" width="124.056355" height="160.677761" viewBox="76.416995 47.661119 124.056355 160.677761" preserveAspectRatio="xMidYMid meet" role="img" aria-label="OLD PERMIC U+1035E Italic">
  <title>OLD PERMIC U+1035E — Italic</title>
  <desc>Derived italic presentation using a 10-degree shear; not a separate style present in the PDF. Fixed 256x256 box and 24-unit nominal margin.</desc>
  <g fill="#000000" transform="translate(88.11497731,187.23751891) scale(10.06959153) skewX(-10)">
    <path d="M 7.078125 -5.96875 C 7.078125 -5.78125 7.015625 -5.65625 6.9375 -5.5625 C 6.8125 -5.4375 6.6875 -5.390625 6.53125 -5.390625 C 6.375 -5.390625 6.265625 -5.4375 6.15625 -5.5625 C 6.046875 -5.65625 6 -5.8125 6 -5.96875 L 6 -8.53125 C 5.59375 -8.46875 5.1875 -8.40625 4.859375 -8.3125 C 4.53125 -8.234375 4.203125 -8.09375 3.890625 -7.96875 C 3.59375 -7.828125 3.28125 -7.65625 2.984375 -7.484375 C 2.703125 -7.265625 2.390625 -7.015625 2.0625 -6.75 L 1.90625 -6.625 L 1.90625 -5.703125 C 1.90625 -4.796875 1.953125 -3.9375 2.09375 -3.109375 C 2.21875 -2.265625 2.28125 -1.40625 2.28125 -0.546875 L 2.28125 -0.359375 C 2.28125 -0.203125 2.25 -0.09375 2.09375 0 C 1.953125 0.09375 1.828125 0.109375 1.6875 0.109375 C 1.40625 0.109375 1.203125 -0.015625 1.140625 -0.359375 C 1.03125 -0.703125 0.96875 -1.09375 0.921875 -1.5625 C 0.875 -2 0.859375 -2.46875 0.859375 -2.953125 C 0.859375 -3.40625 0.84375 -3.890625 0.84375 -4.359375 C 0.84375 -4.796875 0.84375 -5.21875 0.84375 -5.59375 C 0.84375 -6.53125 0.859375 -7.484375 0.859375 -8.484375 C 0.875 -9.484375 0.96875 -10.421875 1.140625 -11.359375 C 1.171875 -11.5 1.234375 -11.640625 1.3125 -11.71875 C 1.40625 -11.8125 1.546875 -11.875 1.6875 -11.875 C 1.890625 -11.875 2.046875 -11.8125 2.140625 -11.703125 C 2.25 -11.578125 2.28125 -11.4375 2.28125 -11.265625 C 2.28125 -10.734375 2.25 -10.25 2.171875 -9.75 C 2.140625 -9.234375 2.0625 -8.734375 2.046875 -8.234375 C 2.3125 -8.453125 2.625 -8.640625 2.984375 -8.828125 C 3.390625 -9 3.78125 -9.171875 4.203125 -9.3125 C 4.625 -9.421875 5.03125 -9.53125 5.453125 -9.609375 C 5.875 -9.6875 6.265625 -9.703125 6.59375 -9.71875 C 6.75 -9.703125 6.859375 -9.640625 6.953125 -9.53125 C 7.046875 -9.390625 7.078125 -9.28125 7.078125 -9.171875 Z M 7.078125 -5.96875 " />
  </g>
</svg>