<?xml version="1.0" standalone="no"?>
<!DOCTYPE svg PUBLIC "-//W3C//DTD SVG 20010904//EN"
 "http://www.w3.org/TR/2001/REC-SVG-20010904/DTD/svg10.dtd">
<svg role="img" aria-label="OLD PERMIC LETTER ZHOI U+10355" shape-rendering="geometricPrecision" version="1.0" xmlns="http://www.w3.org/2000/svg"
 width="83.000000pt" height="52.000000pt" viewBox="0 0 83.000000 52.000000"
 preserveAspectRatio="xMidYMid meet">
<metadata>
Created by potrace 1.16, written by Peter Selinger 2001-2019
</metadata>
<g transform="translate(0.000000,52.000000) scale(0.100000,-0.100000)"
fill="#000000" stroke="none">
<path d="M354 380 c-31 -12 -38 -27 -45 -100 -4 -36 -10 -73 -14 -82 -5 -13
-3 -18 8 -18 19 0 37 56 37 113 0 46 28 77 70 77 27 0 30 -2 20 -19 -5 -11
-10 -54 -10 -95 0 -59 3 -76 14 -76 11 0 15 16 14 74 0 84 12 116 46 116 22 0
24 -5 30 -72 10 -97 15 -118 33 -118 11 0 13 7 8 32 -4 17 -10 63 -14 102 l-6
71 -85 2 c-47 1 -95 -2 -106 -7z"/>
</g>
  <title>OLD PERMIC LETTER ZHOI — U+10355</title>
  <metadata>Style-specific true vector path derived from the complete original glyph cell.</metadata>
</svg>
