<?xml version="1.0" standalone="no"?>
<!DOCTYPE svg PUBLIC "-//W3C//DTD SVG 20010904//EN"
 "http://www.w3.org/TR/2001/REC-SVG-20010904/DTD/svg10.dtd">
<svg role="img" aria-label="OLD PERMIC LETTER I U+10359" shape-rendering="geometricPrecision" version="1.0" xmlns="http://www.w3.org/2000/svg"
 width="78.000000pt" height="56.000000pt" viewBox="0 0 78.000000 56.000000"
 preserveAspectRatio="xMidYMid meet">
<metadata>
Created by potrace 1.16, written by Peter Selinger 2001-2019
</metadata>
<g transform="translate(0.000000,56.000000) scale(0.100000,-0.100000)"
fill="#000000" stroke="none">
<path d="M360 423 c-27 -35 -24 -88 5 -88 15 0 21 8 25 35 5 35 5 35 57 35 29
-1 55 -3 57 -6 3 -3 -3 -37 -14 -75 -22 -75 -26 -159 -10 -169 17 -11 38 13
33 38 -3 13 7 58 22 101 14 42 25 86 23 99 -4 31 -61 57 -125 57 -44 0 -55 -4
-73 -27z"/>
</g>
  <title>OLD PERMIC LETTER I — U+10359</title>
  <metadata>Style-specific true vector path derived from the complete original glyph cell.</metadata>
</svg>
