<?xml version="1.0" standalone="no"?>
<!DOCTYPE svg PUBLIC "-//W3C//DTD SVG 20010904//EN"
 "http://www.w3.org/TR/2001/REC-SVG-20010904/DTD/svg10.dtd">
<svg role="img" aria-label="OLD PERMIC LETTER YERU U+10368" shape-rendering="geometricPrecision" version="1.0" xmlns="http://www.w3.org/2000/svg"
 width="79.000000pt" height="56.000000pt" viewBox="0 0 79.000000 56.000000"
 preserveAspectRatio="xMidYMid meet">
<metadata>
Created by potrace 1.16, written by Peter Selinger 2001-2019
</metadata>
<g transform="translate(0.000000,56.000000) scale(0.100000,-0.100000)"
fill="#000000" stroke="none">
<path d="M355 470 c-3 -5 2 -24 11 -42 9 -17 17 -55 18 -82 1 -50 0 -51 -30
-54 -31 -3 -32 -2 -38 45 -15 109 -19 125 -33 130 -29 11 -33 -12 -20 -112
l12 -100 63 -3 c89 -4 95 3 90 106 -4 71 -2 82 11 80 23 -5 41 -47 41 -99 0
-53 19 -85 44 -76 13 5 16 14 12 34 -3 16 -8 52 -11 80 -9 71 -45 103 -115
103 -27 0 -52 -4 -55 -10z"/>
</g>
  <title>OLD PERMIC LETTER YERU — U+10368</title>
  <metadata>Style-specific true vector path derived from the complete original glyph cell.</metadata>
</svg>
