<?xml version="1.0" standalone="no"?>
<!DOCTYPE svg PUBLIC "-//W3C//DTD SVG 20010904//EN"
 "http://www.w3.org/TR/2001/REC-SVG-20010904/DTD/svg10.dtd">
<svg role="img" aria-label="Old Permic regular Anbur vector glyph" version="1.0" xmlns="http://www.w3.org/2000/svg"
 width="140.929563pt" height="161.000000pt" viewBox="0 0 140.929563 161.000000"
 preserveAspectRatio="xMidYMid meet">
<metadata>
Created by potrace 1.16, written by Peter Selinger 2001-2019
</metadata>
<g transform="translate(-20.070437,181.000000) scale(0.100000,-0.100000)"
fill="#000000" stroke="none">
<title>Old Permic regular Anbur vector glyph</title>
<path d="M240 1801 c0 -5 6 -16 13 -23 7 -7 60 -83 119 -168 58 -85 171 -251
252 -369 80 -117 146 -215 146 -217 0 -2 -44 -66 -97 -143 -54 -77 -148 -214
-210 -303 -61 -90 -146 -211 -187 -271 l-75 -107 704 0 c388 0 705 2 705 5 0
3 -126 188 -280 411 -154 222 -280 407 -280 409 0 9 387 571 410 594 27 29
120 170 120 182 0 5 -296 9 -670 9 -406 0 -670 -4 -670 -9z m948 -179 c-7 -18
-273 -422 -278 -422 -5 0 -271 404 -278 422 -2 4 123 8 278 8 155 0 280 -4
278 -8z m-122 -999 c82 -124 151 -230 152 -235 2 -4 -137 -8 -308 -8 -171 0
-310 4 -308 8 9 23 302 462 308 462 4 0 74 -102 156 -227z"/>
</g>
</svg>
