<?xml version='1.0' encoding='utf-8'?>
<svg xmlns="http://www.w3.org/2000/svg" role="img" aria-label="Old Permic regular Anbur vector glyph" version="1.0" width="126.400000" height="202.000000" viewBox="8.000000 -20.000000 126.400000 202.000000" preserveAspectRatio="xMidYMid meet">
    <metadata>
Created by potrace 1.16, written by Peter Selinger 2001-2019
    </metadata>
    <g transform="translate(10.000000,182.000000) scale(0.0900000,-0.100000)" fill="#000000" stroke="none">
        <title>Old Permic regular Anbur vector glyph</title>
        <path d="M200 1010 l0 -810 104 0 105 0 3 413 c3 381 4 415 22 447 58 108 147 167 267 177 177 15 259 -74 259 -284 l0 -93 100 0 100 0 0 118 c0 189 -38 298 -126 364 -74 57 -130 72 -259 72 -134 -1 -186 -18 -292 -98 l-73 -55 0 279 0 280 -105 0 -105 0 0 -810z" />
    </g>
</svg>